<?xml version="1.0" standalone="no"?>
<!DOCTYPE svg PUBLIC "-//W3C//DTD SVG 20010904//EN"
 "http://www.w3.org/TR/2001/REC-SVG-20010904/DTD/svg10.dtd">
<svg version="1.0" xmlns="http://www.w3.org/2000/svg"
 width="1690.000000pt" height="488.000000pt" viewBox="0 0 1690.000000 488.000000"
 preserveAspectRatio="xMidYMid meet">

<g transform="translate(0.000000,488.000000) scale(0.100000,-0.100000)"
fill="#000000" stroke="none">
<path d="M1184 3338 c-46 -54 -44 -21 -44 -966 0 -1030 -10 -932 97 -932 54 0
61 2 71 25 9 19 12 217 12 730 0 424 4 705 9 705 11 0 21 -31 62 -192 6 -24
15 -57 20 -74 5 -17 9 -40 9 -52 0 -11 4 -23 9 -26 8 -6 14 -31 27 -119 4 -20
10 -40 15 -43 5 -3 9 -18 9 -35 0 -16 4 -37 10 -47 8 -14 33 -110 71 -264 5
-21 13 -55 19 -75 5 -21 13 -56 19 -78 5 -22 15 -58 21 -80 13 -45 25 -91 39
-150 33 -140 52 -191 80 -212 21 -16 161 -16 181 0 32 26 42 51 86 223 25 99
68 267 96 374 27 107 54 213 59 235 6 22 14 57 19 78 6 20 14 54 19 75 32 132
102 396 106 400 2 2 11 2 20 -1 13 -6 15 -83 15 -688 0 -779 -10 -708 97 -709
60 0 61 1 72 31 15 44 15 1748 0 1804 -19 71 -41 85 -129 85 -73 0 -77 -1
-107 -32 -30 -32 -40 -55 -62 -145 -24 -94 -38 -148 -62 -238 -7 -28 -16 -63
-39 -155 -5 -22 -14 -58 -20 -80 -5 -22 -15 -59 -21 -82 -6 -24 -15 -61 -21
-83 -5 -22 -14 -58 -20 -80 -5 -22 -14 -58 -20 -80 -5 -22 -14 -58 -20 -80 -5
-22 -14 -57 -19 -77 -9 -38 -20 -83 -40 -160 -6 -24 -14 -56 -19 -73 -5 -16
-21 -80 -36 -141 -28 -117 -38 -143 -50 -131 -4 4 -18 49 -31 99 -14 51 -38
145 -55 208 -16 63 -34 132 -39 153 -5 20 -13 54 -18 75 -5 20 -23 90 -40 155
-17 64 -45 170 -62 235 -17 64 -35 134 -40 155 -5 20 -13 54 -18 75 -5 20 -24
91 -41 157 -17 66 -40 153 -50 194 -13 49 -28 83 -46 102 -26 27 -33 29 -104
29 -67 0 -79 -3 -96 -22z"/>
<path d="M3135 3339 c-72 -34 -116 -79 -148 -148 -29 -63 -31 -72 -31 -201 0
-140 8 -189 51 -320 41 -125 45 -109 -53 -207 -92 -90 -137 -163 -164 -263 -7
-25 -17 -58 -23 -74 -16 -44 -15 -302 2 -356 27 -89 65 -156 120 -210 57 -56
128 -100 161 -100 11 0 22 -4 25 -10 9 -14 230 -13 274 1 83 27 162 74 226
135 43 41 72 61 80 56 7 -4 58 -51 114 -104 l101 -98 60 0 c46 0 61 4 69 18
14 27 1 75 -28 97 -62 49 -231 220 -231 235 0 9 4 20 9 25 20 21 113 213 132
272 20 62 19 100 -5 115 -21 14 -93 8 -115 -10 -12 -9 -32 -46 -45 -82 -31
-86 -84 -190 -97 -190 -12 0 -46 34 -79 80 -13 19 -28 40 -32 45 -5 6 -32 46
-60 90 -29 44 -56 82 -60 83 -5 2 -8 8 -8 12 0 5 -14 33 -31 62 -18 29 -48 86
-69 125 l-37 73 38 25 c21 14 43 25 49 25 5 0 10 4 10 9 0 5 14 14 30 21 17 7
30 15 30 19 0 4 14 15 31 25 33 19 99 85 99 97 0 4 6 14 13 21 8 7 24 39 35
71 18 47 22 79 22 175 0 158 -22 222 -102 299 -75 72 -104 83 -221 83 -80 -1
-111 -5 -142 -21z m197 -103 c65 -36 104 -99 112 -185 17 -172 -35 -278 -186
-380 -55 -37 -71 -39 -86 -8 -56 108 -77 366 -38 459 19 45 87 118 109 118 9
0 19 5 22 10 9 15 20 13 67 -14z m-184 -888 c17 -29 40 -70 51 -90 52 -93 65
-115 113 -187 43 -64 90 -128 210 -285 17 -22 16 -24 -47 -93 -47 -52 -82 -79
-129 -102 -36 -17 -72 -31 -81 -31 -9 0 -26 -5 -37 -11 -16 -8 -31 -8 -62 1
-104 31 -174 92 -220 190 -29 63 -30 70 -30 205 0 155 17 230 75 332 33 57 94
123 114 123 8 0 27 -24 43 -52z"/>
<path d="M4232 3340 c-9 -15 -12 -226 -12 -946 0 -1058 -11 -953 97 -954 60 0
61 1 72 31 7 20 11 133 11 307 l0 274 32 42 c18 22 35 43 38 46 3 3 21 25 40
50 19 25 42 52 50 60 9 8 37 43 63 77 68 90 79 93 118 41 17 -24 34 -50 37
-58 3 -8 18 -34 34 -57 15 -23 28 -44 28 -46 0 -3 37 -65 81 -138 45 -74 90
-150 101 -169 11 -19 29 -47 39 -62 11 -14 19 -28 19 -31 0 -3 37 -65 81 -138
45 -74 91 -151 102 -171 21 -38 40 -48 97 -48 49 0 80 24 80 61 0 26 -141 270
-368 637 -12 20 -25 44 -29 52 -4 8 -9 17 -12 20 -3 3 -12 16 -19 29 -8 13
-23 40 -34 60 -11 20 -29 48 -39 63 -11 14 -19 29 -19 32 0 3 -13 25 -30 49
-16 25 -30 48 -30 51 0 4 -10 20 -21 36 l-21 28 48 62 c27 34 56 72 64 84 8
11 29 37 47 56 18 19 33 38 33 41 0 3 10 17 21 30 12 13 33 40 48 59 14 19 33
42 41 50 9 8 27 31 40 50 13 19 27 37 30 40 3 3 22 26 43 52 21 26 43 53 50
60 34 37 77 109 77 130 -1 43 -22 58 -83 58 -53 0 -58 -2 -84 -36 -28 -36
-207 -263 -283 -359 -22 -27 -89 -113 -150 -190 -61 -77 -128 -162 -150 -190
-22 -27 -61 -78 -87 -111 -27 -34 -61 -78 -77 -98 -15 -20 -32 -36 -37 -36 -5
0 -9 210 -9 489 0 328 -4 498 -11 520 -11 31 -12 31 -78 31 -55 0 -68 -3 -79
-20z"/>
<path d="M6080 2468 c0 -45 152 -913 162 -925 13 -16 84 -17 93 -3 8 13 25
105 99 539 34 196 40 221 51 209 3 -3 32 -164 65 -359 33 -195 65 -364 70
-376 13 -30 84 -33 99 -4 6 10 26 111 46 225 19 113 51 299 71 414 20 114 37
227 38 252 1 42 -1 45 -28 48 -16 2 -32 0 -37 -5 -4 -4 -35 -169 -68 -367 -33
-197 -62 -361 -65 -364 -12 -12 -18 11 -37 135 -10 70 -23 151 -29 178 -5 28
-21 127 -36 220 -16 107 -32 176 -42 188 -23 26 -88 23 -106 -5 -8 -13 -40
-178 -71 -368 -57 -349 -62 -376 -70 -369 -4 4 -65 375 -101 609 -22 142 -26
150 -69 150 -29 0 -35 -4 -35 -22z"/>
<path d="M7546 2475 c-3 -9 -6 -223 -6 -475 0 -453 0 -459 21 -470 36 -20 64
-9 67 28 3 32 15 41 28 21 13 -21 89 -49 137 -49 153 0 247 129 247 341 0 196
-93 319 -240 319 -43 0 -108 -29 -135 -60 l-20 -22 -5 188 -5 189 -41 3 c-31
2 -43 -1 -48 -13z m329 -386 c61 -57 80 -110 79 -229 0 -76 -5 -105 -23 -145
-27 -60 -65 -103 -108 -121 -28 -12 -38 -12 -67 0 -37 15 -80 57 -102 99 -12
23 -15 58 -12 161 3 130 4 132 36 183 65 101 126 117 197 52z"/>
<path d="M8642 2478 c-16 -16 -17 -909 -2 -939 10 -18 23 -19 174 -19 l164 0
64 33 c85 44 147 125 183 239 22 69 26 101 26 203 1 174 -20 271 -74 352 -38
56 -113 116 -167 132 -52 15 -352 15 -368 -1z m357 -77 c112 -59 171 -195 171
-396 0 -192 -61 -330 -172 -391 -49 -26 -61 -28 -163 -29 l-110 0 -3 424 -2
423 117 -4 c99 -3 125 -8 162 -27z"/>
<path d="M12255 2478 c-3 -7 -4 -222 -3 -478 l3 -465 40 0 40 0 0 475 0 475
-38 3 c-24 2 -39 -1 -42 -10z"/>
<path d="M10416 2404 c-34 -34 -12 -74 41 -74 31 0 53 20 53 49 0 18 -31 41
-55 41 -13 0 -31 -7 -39 -16z"/>
<path d="M7140 2179 c-55 -17 -96 -54 -127 -116 -27 -56 -28 -64 -28 -204 0
-142 1 -147 30 -204 42 -82 94 -118 179 -123 97 -6 150 18 202 93 52 74 47
130 -11 123 -22 -2 -31 -11 -41 -41 -20 -58 -50 -93 -94 -111 -35 -14 -45 -14
-73 -3 -69 29 -117 118 -117 217 l0 30 174 0 c214 0 211 -1 203 106 -8 103
-53 181 -128 220 -40 20 -124 26 -169 13z m154 -93 c35 -34 47 -55 56 -99 20
-88 23 -87 -146 -87 l-146 0 6 48 c15 103 81 182 153 182 26 0 43 -9 77 -44z"/>
<path d="M9510 2179 c-55 -17 -96 -54 -127 -116 -27 -56 -28 -64 -28 -204 0
-142 1 -147 30 -204 43 -84 94 -118 185 -123 83 -5 143 19 185 73 61 81 62
151 0 143 -22 -2 -31 -11 -41 -41 -20 -58 -50 -93 -94 -111 -35 -14 -45 -14
-74 -2 -67 28 -116 120 -116 216 l0 30 171 0 c98 0 178 4 190 10 41 22 15 188
-41 257 -53 66 -157 97 -240 72z m154 -93 c35 -34 47 -55 56 -99 20 -88 23
-87 -146 -87 l-146 0 7 48 c15 104 80 182 153 182 25 0 42 -10 76 -44z"/>
<path d="M10019 2181 c-92 -30 -143 -136 -108 -228 18 -48 48 -71 148 -109
115 -45 161 -84 161 -137 0 -50 -15 -83 -46 -103 -62 -41 -142 -5 -183 80 -19
42 -24 46 -56 46 -32 0 -35 -2 -35 -30 0 -60 67 -142 131 -160 54 -16 140 -11
186 9 48 22 71 53 84 112 23 103 -32 176 -173 229 -131 49 -154 80 -133 177 6
26 63 63 98 63 33 0 83 -42 108 -92 18 -35 24 -39 52 -36 26 2 33 8 35 28 4
36 -51 114 -95 135 -41 20 -136 28 -174 16z"/>
<path d="M10412 2178 c-9 -9 -12 -94 -12 -319 0 -338 -1 -333 62 -327 l33 3 3
314 c2 223 -1 318 -9 327 -14 17 -61 18 -77 2z"/>
<path d="M10776 2176 c-111 -41 -176 -189 -163 -369 7 -92 26 -156 62 -203 57
-74 186 -97 280 -50 l48 25 -7 -45 c-8 -61 -41 -121 -79 -144 -65 -40 -140
-17 -214 64 -23 25 -46 46 -52 46 -97 0 -5 -141 115 -176 141 -41 264 17 307
146 23 66 25 691 3 709 -21 18 -59 9 -70 -15 l-10 -21 -33 19 c-43 26 -136 33
-187 14z m146 -71 c63 -43 78 -90 78 -248 0 -149 -6 -177 -52 -224 -130 -134
-278 34 -247 279 12 93 48 161 107 200 37 24 71 22 114 -7z"/>
<path d="M11205 2177 c-3 -7 -4 -154 -3 -327 l3 -315 34 -3 c20 -2 37 2 42 10
5 7 9 105 9 218 0 232 6 254 77 323 67 64 134 60 180 -10 16 -24 19 -61 23
-283 l5 -255 40 0 40 0 3 220 c3 235 -5 303 -41 356 -60 89 -204 104 -285 29
-18 -16 -35 -30 -38 -30 -2 0 -4 13 -4 28 0 15 -5 33 -12 40 -16 16 -67 15
-73 -1z"/>
<path d="M12475 2177 c-3 -7 -4 -154 -3 -327 l3 -315 40 0 40 0 5 225 c6 250
7 254 77 323 67 64 134 60 180 -10 16 -24 19 -61 23 -283 l5 -255 40 0 40 0 3
229 c3 261 -5 311 -61 369 -67 72 -191 75 -265 7 -18 -16 -35 -30 -38 -30 -2
0 -4 13 -4 28 0 15 -5 33 -12 40 -16 16 -67 15 -73 -1z"/>
<path d="M13176 2175 c-52 -18 -100 -67 -127 -129 -34 -75 -40 -267 -11 -348
40 -115 109 -168 215 -168 32 0 73 7 92 14 62 26 116 102 128 178 7 43 -9 61
-49 56 -23 -3 -29 -10 -38 -48 -18 -70 -51 -116 -96 -134 -63 -25 -119 8 -159
93 -23 50 -26 68 -26 166 0 132 17 187 76 239 72 65 136 39 194 -78 17 -34 26
-42 53 -44 42 -4 50 15 28 72 -20 52 -82 116 -128 132 -44 17 -105 16 -152 -1z"/>
<path d="M13592 1647 c-53 -56 -7 -134 73 -124 71 10 98 75 50 122 -33 34 -93
34 -123 2z"/>
</g>
</svg>
